<svg width="40" height="40" viewBox="0 0 40 40" fill="none" xmlns="http://www.w3.org/2000/svg">
<path d="M35 40H5C2.36 40 0 37.64 0 35V5C0 2.36 2.36 0 5 0H35C37.64 0 40 2.36 40 5V35C40 37.64 37.64 40 35 40Z" fill="#01605A"/>
<path d="M16.2503 6.66724H19.167V19.5839H16.2503V19.1672C15.5618 19.6395 14.6069 20.0006 13.7503 20.0006C11.2052 20.0006 9.16699 17.771 9.16699 15.0006C9.16699 12.2302 11.2011 10.0006 13.7503 10.0006C14.6069 10.0006 15.5577 10.3616 16.2503 10.8339V6.66724ZM16.2503 13.7506C15.8733 13.0422 14.917 12.9172 14.167 12.9172C13.0604 12.9172 12.5003 13.7988 12.5003 15.0006C12.5003 16.2023 13.0604 17.0839 14.167 17.0839C14.917 17.0839 15.8733 16.5212 16.2503 15.8339V13.7506Z" fill="white"/>
<path d="M30.417 15.0012C30.417 17.7571 28.1729 20.0012 25.417 20.0012C22.6611 20.0012 20.417 17.7571 20.417 15.0012C20.417 12.2453 22.6611 10.0012 25.417 10.0012C28.1771 10.0012 30.417 12.2453 30.417 15.0012ZM27.0837 15.0012C27.0837 13.9316 26.3818 12.9179 25.417 12.9179C24.4564 12.9179 23.7503 13.9358 23.7503 15.0012C23.7503 16.0709 24.4522 17.0846 25.417 17.0846C26.3818 17.0846 27.0837 16.0709 27.0837 15.0012Z" fill="white"/>
<path d="M26.667 29.5838L27.917 33.3338L32.0837 25.4172L24.167 20.8338L25.417 25.0005C17.9827 26.6085 10.8023 24.4712 7.91699 20.0005C7.92116 20.8107 8.10016 21.711 8.33366 22.5005C10.1141 28.4754 18.1027 31.4369 26.667 29.5838Z" fill="white"/>
</svg>
