<svg width="48" height="48" viewBox="0 0 48 48" fill="none" xmlns="http://www.w3.org/2000/svg">
<g opacity="0.6">
<path d="M14.7392 15.9468C14.6256 15.6727 14.596 15.3711 14.6539 15.0801C14.7118 14.7892 14.8546 14.5219 15.0645 14.3122L22.9395 6.43918C23.2208 6.15797 23.6022 6 24 6C24.3978 6 24.7792 6.15797 25.0605 6.43918L32.9355 14.3122C33.1453 14.5219 33.2882 14.7892 33.3461 15.0802C33.404 15.3712 33.3743 15.6728 33.2608 15.9469C33.1473 16.221 32.955 16.4552 32.7084 16.6201C32.4617 16.7849 32.1717 16.8729 31.875 16.8729H25.5V28.4999C25.5 28.8977 25.342 29.2793 25.0607 29.5606C24.7794 29.8419 24.3978 29.9999 24 29.9999C23.6022 29.9999 23.2206 29.8419 22.9393 29.5606C22.658 29.2793 22.5 28.8977 22.5 28.4999V16.8729H16.125C15.8283 16.8729 15.5383 16.7849 15.2916 16.6201C15.0449 16.4552 14.8527 16.2209 14.7392 15.9468V15.9468ZM40.5 26.9999C40.1022 26.9999 39.7207 27.158 39.4394 27.4393C39.1581 27.7206 39 28.1021 39 28.4999V38.9999H9V28.4999C9 28.1021 8.84196 27.7206 8.56066 27.4393C8.27936 27.1579 7.89782 26.9999 7.5 26.9999C7.10218 26.9999 6.72064 27.1579 6.43934 27.4393C6.15804 27.7206 6 28.1021 6 28.4999V38.9999C6.00091 39.7953 6.31727 40.5578 6.87968 41.1202C7.4421 41.6826 8.20463 41.999 9 41.9999H39C39.7954 41.999 40.5579 41.6826 41.1203 41.1202C41.6827 40.5578 41.9991 39.7953 42 38.9999V28.4999C42 28.1021 41.8419 27.7206 41.5606 27.4393C41.2793 27.158 40.8978 26.9999 40.5 26.9999V26.9999Z" fill="#171A23"/>
</g>
</svg>
